<mxfile host="app.diagrams.net" modified="2024-04-12T11:48:05.777Z" agent="Mozilla/5.0 (Windows NT 10.0; Win64; x64) AppleWebKit/537.36 (KHTML, like Gecko) Chrome/123.0.0.0 Safari/537.36" version="23.1.5" etag="oDAMPmijiS1KViMaxckW" type="github">
  <diagram name="Page-1" id="R0LucWDS8pMBu9vM3N5_">
    <mxGraphModel>
      <root>
        <mxCell id="0" />
        <mxCell id="1" parent="0" />
      </root>
    </mxGraphModel>
  </diagram>
</mxfile>
